<svg width="24" height="24" viewBox="0 0 24 24" fill="none" xmlns="http://www.w3.org/2000/svg">
<path d="M19.1894 12.75C19.7127 13.3927 20.0274 14.2565 20.0274 15.3584C20.0274 16.3885 19.7524 17.2105 19.2889 17.8383C19.1208 18.0661 19.1562 18.5969 19.2906 18.8461C19.6121 19.4424 19.0046 20.0958 18.3443 19.9444C17.85 19.8311 17.3315 19.6778 16.8778 19.4722C16.7117 19.3969 16.5283 19.3665 16.3471 19.387C16.1219 19.4125 15.8922 19.425 15.6595 19.425C14.5797 19.425 13.5623 19.1538 12.7815 18.5833M16.6942 12.025C16.6942 14.8296 14.6554 16.0917 12.3262 16.0917C12.0936 16.0917 11.8638 16.0791 11.6387 16.0536C11.4574 16.0331 11.274 16.0635 11.1079 16.1388C10.6542 16.3445 10.1357 16.4978 9.64146 16.6111C8.98113 16.7625 8.37362 16.109 8.69515 15.5127C8.82951 15.2636 8.86493 14.7327 8.69681 14.505C8.23336 13.8772 7.95831 13.0551 7.95831 12.025C7.95831 9.22041 9.99709 7.95833 12.3262 7.95833C14.6554 7.95833 16.6942 9.22041 16.6942 12.025Z" stroke="#64748B" stroke-width="1.5" stroke-linecap="round" stroke-linejoin="round"/>
</svg>
