<svg width="24" height="24" viewBox="0 0 24 24" fill="none" xmlns="http://www.w3.org/2000/svg">
<path d="M8.68429 16.4689L9.60162 16.6126C10.2788 16.7186 10.7624 17.3388 10.7125 18.0376L10.6449 18.9847C10.6253 19.2606 10.7722 19.5203 11.0157 19.6405L11.6942 19.9748C11.9376 20.0949 12.2283 20.05 12.4271 19.8627L13.1089 19.2183C13.6115 18.7431 14.3871 18.7431 14.8904 19.2183L15.5722 19.8627C15.771 20.0506 16.061 20.0949 16.3051 19.9748L16.9849 19.6398C17.2277 19.5203 17.374 19.2613 17.3544 18.986L17.2868 18.0376C17.2369 17.3388 17.7205 16.7186 18.3977 16.6126L19.315 16.4689C19.5821 16.4273 19.7973 16.2226 19.8577 15.9527L20.025 15.2023C20.0854 14.9325 19.9784 14.6526 19.7553 14.4968L18.9895 13.9605C18.4246 13.5645 18.252 12.7912 18.5932 12.1838L19.0558 11.3608C19.1903 11.1212 19.168 10.8211 18.9994 10.605L18.5302 10.0029C18.3616 9.78677 18.0807 9.6975 17.8222 9.77872L16.9351 10.0566C16.2795 10.262 15.5807 9.91766 15.3287 9.2659L14.9888 8.38456C14.8891 8.12681 14.6457 7.95766 14.3747 7.95833L13.6227 7.96034C13.3517 7.96102 13.1089 8.13151 13.0105 8.38993L12.6791 9.2612C12.4297 9.91699 11.7276 10.264 11.0701 10.0573L10.1463 9.76731C9.88706 9.68542 9.60491 9.77536 9.43627 9.99284L8.97038 10.5956C8.80174 10.8138 8.7814 11.1145 8.91854 11.3541L9.39165 12.1791C9.74008 12.7872 9.56947 13.5678 9.00122 13.9659L8.24465 14.4962C8.02155 14.6526 7.91459 14.9325 7.97496 15.2016L8.14229 15.9521C8.202 16.2226 8.41722 16.4273 8.68429 16.4689Z" stroke="#64748B" stroke-width="1.5" stroke-linecap="round" stroke-linejoin="round"/>
<path d="M15.3259 12.6741C16.058 13.4063 16.058 14.5937 15.3259 15.3259C14.5937 16.058 13.4062 16.058 12.6741 15.3259C11.9419 14.5937 11.9419 13.4063 12.6741 12.6741C13.4062 11.942 14.5937 11.942 15.3259 12.6741Z" stroke="#64748B" stroke-width="1.5" stroke-linecap="round" stroke-linejoin="round"/>
</svg>
