<svg width="24" height="24" viewBox="0 0 24 24" fill="none" xmlns="http://www.w3.org/2000/svg">
<path d="M10.4583 7.95834V9.20834M14 7.95834V9.20834M17.5416 7.95834V9.20834M9.62498 20.0417H18.375C19.2955 20.0417 20.0416 19.2955 20.0416 18.375V12.9583C20.0416 12.0379 19.2955 11.2917 18.375 11.2917H9.62498C8.70451 11.2917 7.95831 12.0379 7.95831 12.9583V18.375C7.95831 19.2955 8.70451 20.0417 9.62498 20.0417ZM15.875 15.6667C15.875 16.7022 15.0355 17.5417 14 17.5417C12.9644 17.5417 12.125 16.7022 12.125 15.6667C12.125 14.6311 12.9644 13.7917 14 13.7917C15.0355 13.7917 15.875 14.6311 15.875 15.6667Z" stroke="#64748B" stroke-width="1.5" stroke-linecap="round" stroke-linejoin="round"/>
</svg>
